<?xml version="1.0" standalone="no"?>
<!DOCTYPE svg PUBLIC "-//W3C//DTD SVG 20010904//EN"
 "http://www.w3.org/TR/2001/REC-SVG-20010904/DTD/svg10.dtd">
<svg version="1.0" xmlns="http://www.w3.org/2000/svg"
 width="720.000000pt" height="378.000000pt" viewBox="0 0 720.000000 378.000000"
 preserveAspectRatio="xMidYMid meet">
<metadata>
Created by potrace 1.16, written by Peter Selinger 2001-2019
</metadata>
<g transform="translate(0.000000,378.000000) scale(0.100000,-0.100000)"
fill="#000000" stroke="none">
<path d="M2405 2590 c-10 -11 -16 -22 -14 -24 2 -2 12 7 22 20 22 29 17 32 -8
4z"/>
<path d="M2418 2508 c6 -6 18 -8 28 -6 14 3 12 5 -9 10 -19 3 -25 2 -19 -4z"/>
<path d="M2438 2433 c7 -3 16 -2 19 1 4 3 -2 6 -13 5 -11 0 -14 -3 -6 -6z"/>
<path d="M2230 2426 c0 -2 8 -10 18 -17 15 -13 16 -12 3 4 -13 16 -21 21 -21
13z"/>
<path d="M2160 2356 c0 -2 8 -10 18 -17 15 -13 16 -12 3 4 -13 16 -21 21 -21
13z"/>
<path d="M2165 2249 c-4 -6 -5 -12 -2 -15 2 -3 7 2 10 11 7 17 1 20 -8 4z"/>
<path d="M2476 2203 c-6 -14 -5 -15 5 -6 7 7 10 15 7 18 -3 3 -9 -2 -12 -12z"/>
<path d="M3220 2113 c0 -11 161 -438 168 -445 4 -3 25 -8 46 -10 l39 -3 87
230 86 230 -34 3 c-19 2 -36 2 -38 0 -2 -3 -35 -92 -73 -199 -61 -171 -71
-191 -79 -169 -6 14 -35 95 -65 180 -30 85 -58 163 -62 173 -5 11 -18 17 -41
17 -19 0 -34 -3 -34 -7z"/>
<path d="M5668 2018 c-20 -57 -57 -160 -82 -230 l-46 -128 39 0 c37 0 39 2 51
45 l13 45 102 0 103 0 14 -42 c13 -39 18 -43 51 -46 20 -2 37 -1 37 1 0 4 -98
281 -141 400 l-21 57 -43 0 -42 0 -35 -102z m117 -92 c19 -53 35 -101 35 -106
0 -6 -34 -10 -76 -10 -57 0 -75 3 -72 13 3 6 20 56 38 109 19 53 35 96 37 95
1 -2 18 -47 38 -101z"/>
<path d="M6030 1890 l0 -230 38 0 37 0 -3 230 -3 230 -34 0 -35 0 0 -230z"/>
<path d="M4400 2065 c0 -38 -3 -45 -20 -45 -16 0 -20 -7 -20 -30 0 -23 4 -30
20 -30 19 0 20 -7 20 -115 0 -120 12 -166 45 -179 9 -3 39 -6 66 -6 45 0 49 2
49 24 0 20 -6 24 -39 30 -22 3 -41 13 -45 22 -3 8 -6 63 -6 120 l0 104 45 0
c43 0 45 1 45 30 0 29 -2 30 -45 30 l-45 0 0 45 c0 45 0 45 -35 45 -35 0 -35
0 -35 -45z"/>
<path d="M2179 2017 c5 -5 19 -7 32 -5 20 3 19 5 -9 9 -20 3 -29 2 -23 -4z"/>
<path d="M3825 2021 c-72 -18 -110 -60 -127 -143 -25 -124 55 -227 177 -228
54 0 125 37 148 78 l19 32 -37 0 c-25 0 -47 -8 -67 -25 -17 -14 -42 -25 -59
-25 -56 0 -109 41 -109 84 0 14 20 16 140 16 l140 0 0 40 c0 81 -51 149 -125
169 -44 12 -56 12 -100 2z m121 -83 c12 -13 25 -33 29 -45 6 -23 6 -23 -99
-23 -61 0 -106 4 -106 10 0 24 26 60 54 75 40 20 93 13 122 -17z"/>
<path d="M4270 2019 c-14 -6 -35 -20 -47 -31 l-23 -21 0 26 c0 24 -4 27 -35
27 l-35 0 0 -180 0 -180 35 0 35 0 0 104 c0 146 18 186 84 186 24 0 26 4 26
40 0 43 -2 44 -40 29z"/>
<path d="M4740 2017 c-49 -16 -73 -36 -99 -77 -28 -46 -29 -150 -2 -200 52
-99 198 -120 281 -41 49 47 50 61 5 61 -23 0 -42 -8 -59 -25 -44 -44 -138 -27
-164 30 -7 14 -12 30 -12 35 0 6 58 10 140 10 l140 0 0 45 c0 120 -116 201
-230 162z m105 -62 c29 -14 55 -50 55 -75 0 -6 -45 -10 -105 -10 -115 0 -123
5 -84 54 36 46 80 56 134 31z"/>
<path d="M5020 2014 c0 -3 25 -44 55 -91 l56 -85 -39 -62 c-21 -33 -46 -73
-56 -88 l-18 -28 35 0 c33 0 38 5 72 60 20 33 38 60 40 60 2 0 20 -27 40 -60
35 -57 38 -60 76 -60 29 0 38 3 33 13 -4 6 -30 47 -57 90 l-49 78 56 84 c31
47 56 87 56 90 0 3 -15 5 -34 5 -31 0 -38 -5 -71 -60 -20 -33 -38 -60 -40 -60
-2 0 -20 27 -41 60 -35 57 -39 60 -75 60 -22 0 -39 -3 -39 -6z"/>
<path d="M2392 1890 c0 -14 2 -19 5 -12 2 6 2 18 0 25 -3 6 -5 1 -5 -13z"/>
<path d="M2238 1752 c9 -10 19 -17 21 -16 6 5 -20 34 -30 34 -5 0 -1 -8 9 -18z"/>
<path d="M2239 1683 c-13 -16 -12 -17 4 -4 9 7 17 15 17 17 0 8 -8 3 -21 -13z"/>
<path d="M1968 1343 c6 -2 18 -2 25 0 6 3 1 5 -13 5 -14 0 -19 -2 -12 -5z"/>
<path d="M1917 1189 c7 -7 15 -10 18 -7 3 3 -2 9 -12 12 -14 6 -15 5 -6 -5z"/>
</g>
</svg>
